STARTFONT 2.1
FONT -Monotype-Courier-Bold-R-Normal--12-120-75-75-M-57-iso8859-2
SIZE 12 75 75
FONTBOUNDINGBOX 9 15 0 -3

STARTPROPERTIES 24
FOUNDRY "Monotype"
FAMILY_NAME "Courier"
WEIGHT_NAME "Bold"
SLANT "R"
SETWIDTH_NAME "Normal"
ADD_STYLE_NAME ""
PIXEL_SIZE 12
POINT_SIZE 120
RESOLUTION_X 75
RESOLUTION_Y 75
SPACING "M"
AVERAGE_WIDTH 57
CHARSET_REGISTRY "iso8859"
CHARSET_ENCODING "2"
FACE_NAME "Courier Bold ISO Latin2"
_DEC_DEVICE_FONTNAMES "PS=courier-b-lat2"
COPYRIGHT "Copyright (c) 1994 Monotype Typography Ltd."
CAP_HEIGHT 8
X_HEIGHT 6
WEIGHT 10
QUAD_WIDTH 8
DEFAULT_CHAR 160
FONT_DESCENT 3
FONT_ASCENT 12
ENDPROPERTIES

CHARS 191

STARTCHAR space
ENCODING 32
SWIDTH 600 0
DWIDTH 7 0
BBX 0 0 0 0
BITMAP
ENDCHAR

STARTCHAR exclam
ENCODING 33
SWIDTH 600 0
DWIDTH 7 0
BBX 2 9 3 0
BITMAP
C0
C0
C0
C0
C0
C0
00
C0
C0
ENDCHAR

STARTCHAR quotedbl
ENCODING 34
SWIDTH 600 0
DWIDTH 7 0
BBX 3 4 2 5
BITMAP
A0
A0
A0
A0
ENDCHAR

STARTCHAR numbersign
ENCODING 35
SWIDTH 600 0
DWIDTH 7 0
BBX 6 9 1 -1
BITMAP
28
28
28
FC
50
F8
50
50
50
ENDCHAR

STARTCHAR dollar
ENCODING 36
SWIDTH 600 0
DWIDTH 8 0
BBX 6 10 1 -1
BITMAP
10
78
CC
E0
78
1C
CC
78
10
10
ENDCHAR

STARTCHAR percent
ENCODING 37
SWIDTH 600 0
DWIDTH 7 0
BBX 8 8 0 0
BITMAP
60
D0
D6
78
66
0D
0D
06
ENDCHAR

STARTCHAR ampersand
ENCODING 38
SWIDTH 600 0
DWIDTH 7 0
BBX 6 7 1 0
BITMAP
34
68
60
6C
D0
D0
68
ENDCHAR

STARTCHAR quoteright
ENCODING 39
SWIDTH 600 0
DWIDTH 7 0
BBX 2 4 3 5
BITMAP
C0
C0
80
80
ENDCHAR

STARTCHAR parenleft
ENCODING 40
SWIDTH 600 0
DWIDTH 7 0
BBX 3 11 2 -2
BITMAP
20
60
40
C0
C0
C0
C0
C0
40
60
20
ENDCHAR

STARTCHAR parenright
ENCODING 41
SWIDTH 600 0
DWIDTH 7 0
BBX 3 11 2 -2
BITMAP
80
C0
40
60
60
60
60
60
40
C0
80
ENDCHAR

STARTCHAR asterisk
ENCODING 42
SWIDTH 600 0
DWIDTH 7 0
BBX 5 5 1 4
BITMAP
20
A8
70
50
88
ENDCHAR

STARTCHAR plus
ENCODING 43
SWIDTH 600 0
DWIDTH 7 0
BBX 5 5 1 1
BITMAP
20
20
F8
20
20
ENDCHAR

STARTCHAR comma
ENCODING 44
SWIDTH 600 0
DWIDTH 7 0
BBX 3 3 1 -2
BITMAP
60
60
C0
ENDCHAR

STARTCHAR minus
ENCODING 45
SWIDTH 600 0
DWIDTH 7 0
BBX 6 1 1 3
BITMAP
FC
ENDCHAR

STARTCHAR period
ENCODING 46
SWIDTH 600 0
DWIDTH 7 0
BBX 2 2 2 0
BITMAP
C0
C0
ENDCHAR

STARTCHAR slash
ENCODING 47
SWIDTH 600 0
DWIDTH 7 0
BBX 5 11 1 -2
BITMAP
18
18
18
30
30
60
60
60
C0
C0
C0
ENDCHAR

STARTCHAR zero
ENCODING 48
SWIDTH 600 0
DWIDTH 7 0
BBX 6 8 1 0
BITMAP
78
CC
CC
CC
CC
CC
CC
78
ENDCHAR

STARTCHAR one
ENCODING 49
SWIDTH 600 0
DWIDTH 7 0
BBX 6 8 1 0
BITMAP
70
B0
30
30
30
30
30
FC
ENDCHAR

STARTCHAR two
ENCODING 50
SWIDTH 600 0
DWIDTH 7 0
BBX 5 8 1 0
BITMAP
70
98
18
18
30
60
C0
F8
ENDCHAR

STARTCHAR three
ENCODING 51
SWIDTH 600 0
DWIDTH 7 0
BBX 5 8 1 0
BITMAP
70
98
18
30
10
18
98
70
ENDCHAR

STARTCHAR four
ENCODING 52
SWIDTH 600 0
DWIDTH 7 0
BBX 6 8 1 0
BITMAP
18
38
58
58
98
FC
18
3C
ENDCHAR

STARTCHAR five
ENCODING 53
SWIDTH 600 0
DWIDTH 7 0
BBX 6 8 1 0
BITMAP
7C
60
60
78
0C
0C
CC
78
ENDCHAR

STARTCHAR six
ENCODING 54
SWIDTH 600 0
DWIDTH 7 0
BBX 6 8 1 0
BITMAP
38
60
C0
F8
CC
CC
CC
78
ENDCHAR

STARTCHAR seven
ENCODING 55
SWIDTH 600 0
DWIDTH 7 0
BBX 6 8 1 0
BITMAP
FC
FC
08
18
10
30
20
20
ENDCHAR

STARTCHAR eight
ENCODING 56
SWIDTH 600 0
DWIDTH 7 0
BBX 6 8 1 0
BITMAP
78
CC
CC
78
CC
CC
CC
78
ENDCHAR

STARTCHAR nine
ENCODING 57
SWIDTH 600 0
DWIDTH 7 0
BBX 6 8 1 0
BITMAP
78
CC
CC
CC
7C
0C
18
70
ENDCHAR

STARTCHAR colon
ENCODING 58
SWIDTH 600 0
DWIDTH 7 0
BBX 2 6 3 0
BITMAP
C0
C0
00
00
C0
C0
ENDCHAR

STARTCHAR semicolon
ENCODING 59
SWIDTH 600 0
DWIDTH 7 0
BBX 3 8 2 -2
BITMAP
60
60
00
00
00
60
60
C0
ENDCHAR

STARTCHAR less
ENCODING 60
SWIDTH 600 0
DWIDTH 7 0
BBX 6 7 1 0
BITMAP
0C
38
60
C0
60
38
0C
ENDCHAR

STARTCHAR equal
ENCODING 61
SWIDTH 600 0
DWIDTH 7 0
BBX 6 3 1 2
BITMAP
FC
00
FC
ENDCHAR

STARTCHAR greater
ENCODING 62
SWIDTH 600 0
DWIDTH 7 0
BBX 6 7 1 0
BITMAP
C0
70
18
0C
18
70
C0
ENDCHAR

STARTCHAR question
ENCODING 63
SWIDTH 600 0
DWIDTH 7 0
BBX 5 9 1 0
BITMAP
70
D8
D8
18
30
60
60
00
60
ENDCHAR

STARTCHAR at
ENCODING 64
SWIDTH 600 0
DWIDTH 7 0
BBX 6 10 1 -1
BITMAP
70
88
88
98
A8
A8
9C
80
88
70
ENDCHAR

STARTCHAR A
ENCODING 65
SWIDTH 600 0
DWIDTH 7 0
BBX 7 8 0 0
BITMAP
70
38
38
6C
6C
7C
C6
C6
ENDCHAR

STARTCHAR B
ENCODING 66
SWIDTH 600 0
DWIDTH 7 0
BBX 7 8 0 0
BITMAP
FC
66
66
7C
66
66
66
FC
ENDCHAR

STARTCHAR C
ENCODING 67
SWIDTH 600 0
DWIDTH 7 0
BBX 6 8 1 0
BITMAP
74
CC
C4
C0
C0
C0
CC
78
ENDCHAR

STARTCHAR D
ENCODING 68
SWIDTH 600 0
DWIDTH 7 0
BBX 7 8 0 0
BITMAP
FC
66
66
66
66
66
66
FC
ENDCHAR

STARTCHAR E
ENCODING 69
SWIDTH 600 0
DWIDTH 7 0
BBX 6 8 1 0
BITMAP
FC
64
68
78
68
60
64
FC
ENDCHAR

STARTCHAR F
ENCODING 70
SWIDTH 600 0
DWIDTH 7 0
BBX 6 8 1 0
BITMAP
FC
64
68
78
68
60
60
F0
ENDCHAR

STARTCHAR G
ENCODING 71
SWIDTH 600 0
DWIDTH 7 0
BBX 6 8 1 0
BITMAP
74
CC
C4
C0
DC
CC
CC
78
ENDCHAR

STARTCHAR H
ENCODING 72
SWIDTH 600 0
DWIDTH 7 0
BBX 8 8 0 0
BITMAP
E7
66
66
7E
66
66
66
E7
ENDCHAR

STARTCHAR I
ENCODING 73
SWIDTH 600 0
DWIDTH 7 0
BBX 6 8 1 0
BITMAP
FC
30
30
30
30
30
30
FC
ENDCHAR

STARTCHAR J
ENCODING 74
SWIDTH 600 0
DWIDTH 7 0
BBX 6 8 1 0
BITMAP
3C
18
18
18
98
98
D8
70
ENDCHAR

STARTCHAR K
ENCODING 75
SWIDTH 600 0
DWIDTH 7 0
BBX 7 8 0 0
BITMAP
E6
6C
6C
78
78
6C
6C
E6
ENDCHAR

STARTCHAR L
ENCODING 76
SWIDTH 600 0
DWIDTH 7 0
BBX 6 8 1 0
BITMAP
F0
60
60
60
60
64
64
FC
ENDCHAR

STARTCHAR M
ENCODING 77
SWIDTH 600 0
DWIDTH 7 0
BBX 7 8 0 0
BITMAP
82
C6
EE
D6
D6
C6
C6
EE
ENDCHAR

STARTCHAR N
ENCODING 78
SWIDTH 600 0
DWIDTH 7 0
BBX 7 8 0 0
BITMAP
E6
74
74
7C
5C
5C
4C
CC
ENDCHAR

STARTCHAR O
ENCODING 79
SWIDTH 600 0
DWIDTH 7 0
BBX 6 8 1 0
BITMAP
78
CC
CC
CC
CC
CC
CC
78
ENDCHAR

STARTCHAR P
ENCODING 80
SWIDTH 600 0
DWIDTH 7 0
BBX 7 8 0 0
BITMAP
FC
66
66
66
7C
60
60
F8
ENDCHAR

STARTCHAR Q
ENCODING 81
SWIDTH 600 0
DWIDTH 7 0
BBX 6 10 1 -2
BITMAP
78
CC
CC
CC
CC
CC
CC
78
10
0C
ENDCHAR

STARTCHAR R
ENCODING 82
SWIDTH 600 0
DWIDTH 7 0
BBX 7 8 0 0
BITMAP
FC
66
66
66
7C
6C
6C
E6
ENDCHAR

STARTCHAR S
ENCODING 83
SWIDTH 600 0
DWIDTH 7 0
BBX 6 8 1 0
BITMAP
74
DC
C4
70
38
8C
EC
B8
ENDCHAR

STARTCHAR T
ENCODING 84
SWIDTH 600 0
DWIDTH 7 0
BBX 6 8 1 0
BITMAP
FC
B4
B4
30
30
30
30
78
ENDCHAR

STARTCHAR U
ENCODING 85
SWIDTH 600 0
DWIDTH 7 0
BBX 8 8 0 0
BITMAP
E7
66
66
66
66
66
66
3C
ENDCHAR

STARTCHAR V
ENCODING 86
SWIDTH 600 0
DWIDTH 7 0
BBX 7 8 1 0
BITMAP
E6
E4
6C
68
78
38
30
30
ENDCHAR

STARTCHAR W
ENCODING 87
SWIDTH 600 0
DWIDTH 7 0
BBX 7 8 0 0
BITMAP
C2
C2
DA
DA
7E
66
64
64
ENDCHAR

STARTCHAR X
ENCODING 88
SWIDTH 600 0
DWIDTH 7 0
BBX 7 8 0 0
BITMAP
EE
64
38
30
18
38
4C
EE
ENDCHAR

STARTCHAR Y
ENCODING 89
SWIDTH 600 0
DWIDTH 7 0
BBX 7 8 0 0
BITMAP
E6
66
24
3C
18
18
18
7E
ENDCHAR

STARTCHAR Z
ENCODING 90
SWIDTH 600 0
DWIDTH 7 0
BBX 6 8 1 0
BITMAP
FC
8C
0C
18
30
60
C4
FC
ENDCHAR

STARTCHAR bracketleft
ENCODING 91
SWIDTH 600 0
DWIDTH 7 0
BBX 4 11 2 -2
BITMAP
F0
C0
C0
C0
C0
C0
C0
C0
C0
C0
F0
ENDCHAR

STARTCHAR backslash
ENCODING 92
SWIDTH 600 0
DWIDTH 7 0
BBX 5 11 1 -2
BITMAP
C0
C0
C0
60
60
30
30
30
18
18
18
ENDCHAR

STARTCHAR bracketright
ENCODING 93
SWIDTH 600 0
DWIDTH 7 0
BBX 4 11 1 -2
BITMAP
F0
30
30
30
30
30
30
30
30
30
F0
ENDCHAR

STARTCHAR asciicircum
ENCODING 94
SWIDTH 600 0
DWIDTH 7 0
BBX 6 3 1 6
BITMAP
30
78
CC
ENDCHAR

STARTCHAR underscore
ENCODING 95
SWIDTH 600 0
DWIDTH 7 0
BBX 7 1 0 -2
BITMAP
FE
ENDCHAR

STARTCHAR quoteleft
ENCODING 96
SWIDTH 600 0
DWIDTH 7 0
BBX 2 4 3 5
BITMAP
C0
C0
40
40
ENDCHAR

STARTCHAR a
ENCODING 97
SWIDTH 600 0
DWIDTH 7 0
BBX 7 6 1 0
BITMAP
78
0C
7C
CC
CC
7E
ENDCHAR

STARTCHAR b
ENCODING 98
SWIDTH 600 0
DWIDTH 7 0
BBX 7 9 0 0
BITMAP
E0
60
60
6C
76
66
66
76
EC
ENDCHAR

STARTCHAR c
ENCODING 99
SWIDTH 600 0
DWIDTH 7 0
BBX 6 6 1 0
BITMAP
78
CC
C0
C0
CC
78
ENDCHAR

STARTCHAR d
ENCODING 100
SWIDTH 600 0
DWIDTH 7 0
BBX 6 9 1 0
BITMAP
1C
0C
0C
6C
DC
CC
CC
DC
6C
ENDCHAR

STARTCHAR e
ENCODING 101
SWIDTH 600 0
DWIDTH 7 0
BBX 6 6 1 0
BITMAP
78
CC
FC
C0
CC
78
ENDCHAR

STARTCHAR f
ENCODING 102
SWIDTH 600 0
DWIDTH 7 0
BBX 5 9 1 0
BITMAP
38
60
60
F8
60
60
60
60
F8
ENDCHAR

STARTCHAR g
ENCODING 103
SWIDTH 600 0
DWIDTH 7 0
BBX 7 8 1 -2
BITMAP
6E
DC
CC
CC
DC
6C
0C
78
ENDCHAR

STARTCHAR h
ENCODING 104
SWIDTH 600 0
DWIDTH 7 0
BBX 7 9 0 0
BITMAP
E0
60
60
6C
76
66
66
66
E6
ENDCHAR

STARTCHAR i
ENCODING 105
SWIDTH 600 0
DWIDTH 7 0
BBX 6 9 1 0
BITMAP
30
30
00
F0
30
30
30
30
FC
ENDCHAR

STARTCHAR j
ENCODING 106
SWIDTH 600 0
DWIDTH 7 0
BBX 5 11 1 -2
BITMAP
18
18
00
F8
18
18
18
18
18
18
F0
ENDCHAR

STARTCHAR k
ENCODING 107
SWIDTH 600 0
DWIDTH 7 0
BBX 7 9 0 0
BITMAP
E0
60
60
6E
78
70
78
6C
E6
ENDCHAR

STARTCHAR l
ENCODING 108
SWIDTH 600 0
DWIDTH 7 0
BBX 6 9 1 0
BITMAP
F0
30
30
30
30
30
30
30
FC
ENDCHAR

STARTCHAR m
ENCODING 109
SWIDTH 600 0
DWIDTH 7 0
BBX 7 6 0 0
BITMAP
F4
6A
6A
6A
6A
EA
ENDCHAR

STARTCHAR n
ENCODING 110
SWIDTH 600 0
DWIDTH 7 0
BBX 7 6 0 0
BITMAP
DC
66
66
66
66
E6
ENDCHAR

STARTCHAR o
ENCODING 111
SWIDTH 600 0
DWIDTH 7 0
BBX 6 6 1 0
BITMAP
78
CC
CC
CC
CC
78
ENDCHAR

STARTCHAR p
ENCODING 112
SWIDTH 600 0
DWIDTH 7 0
BBX 7 8 0 -2
BITMAP
EC
76
66
66
76
6C
60
F0
ENDCHAR

STARTCHAR q
ENCODING 113
SWIDTH 600 0
DWIDTH 7 0
BBX 7 8 1 -2
BITMAP
6E
DC
CC
CC
DC
6C
0C
1E
ENDCHAR

STARTCHAR r
ENCODING 114
SWIDTH 600 0
DWIDTH 7 0
BBX 6 6 1 0
BITMAP
EC
70
60
60
60
F8
ENDCHAR

STARTCHAR s
ENCODING 115
SWIDTH 600 0
DWIDTH 7 0
BBX 6 6 1 0
BITMAP
7C
C4
F8
7C
9C
F8
ENDCHAR

STARTCHAR t
ENCODING 116
SWIDTH 600 0
DWIDTH 7 0
BBX 6 8 1 0
BITMAP
60
60
F8
60
60
60
64
38
ENDCHAR

STARTCHAR u
ENCODING 117
SWIDTH 600 0
DWIDTH 7 0
BBX 7 6 0 0
BITMAP
EE
66
66
66
66
3A
ENDCHAR

STARTCHAR v
ENCODING 118
SWIDTH 600 0
DWIDTH 7 0
BBX 7 6 1 0
BITMAP
CE
C4
68
78
30
30
ENDCHAR

STARTCHAR w
ENCODING 119
SWIDTH 600 0
DWIDTH 7 0
BBX 8 6 0 0
BITMAP
E3
69
6A
3E
34
34
ENDCHAR

STARTCHAR x
ENCODING 120
SWIDTH 600 0
DWIDTH 7 0
BBX 6 6 1 0
BITMAP
CC
78
30
30
78
CC
ENDCHAR

STARTCHAR y
ENCODING 121
SWIDTH 600 0
DWIDTH 7 0
BBX 7 8 0 -2
BITMAP
EE
66
6C
38
18
30
30
78
ENDCHAR

STARTCHAR z
ENCODING 122
SWIDTH 600 0
DWIDTH 7 0
BBX 6 6 1 0
BITMAP
FC
8C
18
30
64
FC
ENDCHAR

STARTCHAR braceleft
ENCODING 123
SWIDTH 600 0
DWIDTH 7 0
BBX 4 11 2 -2
BITMAP
30
60
60
60
60
C0
60
60
60
60
30
ENDCHAR

STARTCHAR bar
ENCODING 124
SWIDTH 600 0
DWIDTH 7 0
BBX 2 11 3 -2
BITMAP
C0
C0
C0
C0
C0
C0
C0
C0
C0
C0
C0
ENDCHAR

STARTCHAR braceright
ENCODING 125
SWIDTH 600 0
DWIDTH 7 0
BBX 4 11 1 -2
BITMAP
C0
60
60
60
60
30
60
60
60
60
C0
ENDCHAR

STARTCHAR asciitilde
ENCODING 126
SWIDTH 600 0
DWIDTH 7 0
BBX 6 2 1 3
BITMAP
74
B8
ENDCHAR

STARTCHAR space
ENCODING 160
SWIDTH 600 0
DWIDTH 9 0
BBX 0 0 0 0
BITMAP
ENDCHAR

STARTCHAR Aogonek
ENCODING 161
SWIDTH 600 0
DWIDTH 7 0
BBX 7 10 0 -2
BITMAP
70
38
38
6C
6C
7C
C6
C6
04
06
ENDCHAR

STARTCHAR breve
ENCODING 162
SWIDTH 600 0
DWIDTH 7 0
BBX 5 2 1 7
BITMAP
88
70
ENDCHAR

STARTCHAR Lslash
ENCODING 163
SWIDTH 600 0
DWIDTH 7 0
BBX 6 8 1 0
BITMAP
F0
60
68
70
E0
64
64
FC
ENDCHAR

STARTCHAR currency
ENCODING 164
SWIDTH 600 0
DWIDTH 7 0
BBX 5 5 1 1
BITMAP
A8
50
88
50
A8
ENDCHAR

STARTCHAR Lcaron
ENCODING 165
SWIDTH 600 0
DWIDTH 7 0
BBX 6 8 1 0
BITMAP
F4
64
68
60
60
64
64
FC
ENDCHAR

STARTCHAR Sacute
ENCODING 166
SWIDTH 600 0
DWIDTH 7 0
BBX 6 11 1 0
BITMAP
08
10
00
74
DC
C4
70
38
8C
EC
B8
ENDCHAR

STARTCHAR section
ENCODING 167
SWIDTH 600 0
DWIDTH 7 0
BBX 6 10 1 -1
BITMAP
3C
64
60
D8
CC
CC
6C
18
98
F0
ENDCHAR

STARTCHAR dieresis
ENCODING 168
SWIDTH 600 0
DWIDTH 7 0
BBX 4 1 2 7
BITMAP
90
ENDCHAR

STARTCHAR Scaron
ENCODING 169
SWIDTH 600 0
DWIDTH 7 0
BBX 6 11 1 0
BITMAP
48
30
00
74
DC
C4
70
38
8C
EC
B8
ENDCHAR

STARTCHAR Scommaaccent
ENCODING 170
SWIDTH 600 0
DWIDTH 7 0
BBX 6 11 1 -3
BITMAP
74
DC
C4
70
38
8C
EC
B8
00
10
20
ENDCHAR

STARTCHAR Tcaron
ENCODING 171
SWIDTH 600 0
DWIDTH 7 0
BBX 6 11 1 0
BITMAP
48
30
00
FC
B4
B4
30
30
30
30
78
ENDCHAR

STARTCHAR Zacute
ENCODING 172
SWIDTH 600 0
DWIDTH 7 0
BBX 6 11 1 0
BITMAP
08
10
00
FC
8C
0C
18
30
60
C4
FC
ENDCHAR

STARTCHAR hyphen
ENCODING 173
SWIDTH 600 0
DWIDTH 7 0
BBX 6 1 1 3
BITMAP
FC
ENDCHAR

STARTCHAR Zcaron
ENCODING 174
SWIDTH 600 0
DWIDTH 7 0
BBX 6 11 1 0
BITMAP
48
30
00
FC
8C
0C
18
30
60
C4
FC
ENDCHAR

STARTCHAR Zdotaccent
ENCODING 175
SWIDTH 600 0
DWIDTH 7 0
BBX 6 10 1 0
BITMAP
10
00
FC
8C
0C
18
30
60
C4
FC
ENDCHAR

STARTCHAR degree
ENCODING 176
SWIDTH 600 0
DWIDTH 7 0
BBX 4 4 2 5
BITMAP
60
90
90
60
ENDCHAR

STARTCHAR aogonek
ENCODING 177
SWIDTH 600 0
DWIDTH 7 0
BBX 7 8 1 -2
BITMAP
78
0C
7C
CC
CC
7E
04
06
ENDCHAR

STARTCHAR ogonek
ENCODING 178
SWIDTH 600 0
DWIDTH 7 0
BBX 2 2 3 -2
BITMAP
80
C0
ENDCHAR

STARTCHAR lslash
ENCODING 179
SWIDTH 600 0
DWIDTH 7 0
BBX 6 9 1 0
BITMAP
F0
30
34
38
70
B0
30
30
FC
ENDCHAR

STARTCHAR acute
ENCODING 180
SWIDTH 600 0
DWIDTH 7 0
BBX 2 2 3 7
BITMAP
40
80
ENDCHAR

STARTCHAR lcaron
ENCODING 181
SWIDTH 600 0
DWIDTH 7 0
BBX 6 9 1 0
BITMAP
F4
34
38
30
30
30
30
30
FC
ENDCHAR

STARTCHAR sacute
ENCODING 182
SWIDTH 600 0
DWIDTH 7 0
BBX 6 9 1 0
BITMAP
08
10
00
7C
C4
F8
7C
9C
F8
ENDCHAR

STARTCHAR caron
ENCODING 183
SWIDTH 600 0
DWIDTH 7 0
BBX 4 2 2 7
BITMAP
90
60
ENDCHAR

STARTCHAR commaaccent
ENCODING 184
SWIDTH 600 0
DWIDTH 7 0
BBX 2 2 3 -3
BITMAP
40
80
ENDCHAR

STARTCHAR scaron
ENCODING 185
SWIDTH 600 0
DWIDTH 7 0
BBX 6 9 1 0
BITMAP
48
30
00
7C
C4
F8
7C
9C
F8
ENDCHAR

STARTCHAR scommaaccent
ENCODING 186
SWIDTH 600 0
DWIDTH 7 0
BBX 6 9 1 -3
BITMAP
7C
C4
F8
7C
9C
F8
00
20
40
ENDCHAR

STARTCHAR tcaron
ENCODING 187
SWIDTH 600 0
DWIDTH 7 0
BBX 6 9 1 0
BITMAP
04
64
68
F8
60
60
60
64
38
ENDCHAR

STARTCHAR zacute
ENCODING 188
SWIDTH 600 0
DWIDTH 7 0
BBX 6 9 1 0
BITMAP
08
10
00
FC
8C
18
30
64
FC
ENDCHAR

STARTCHAR hungarumlaut
ENCODING 189
SWIDTH 600 0
DWIDTH 7 0
BBX 5 2 1 7
BITMAP
48
90
ENDCHAR

STARTCHAR zcaron
ENCODING 190
SWIDTH 600 0
DWIDTH 7 0
BBX 6 9 1 0
BITMAP
48
30
00
FC
8C
18
30
64
FC
ENDCHAR

STARTCHAR zdotaccent
ENCODING 191
SWIDTH 600 0
DWIDTH 7 0
BBX 6 8 1 0
BITMAP
10
00
FC
8C
18
30
64
FC
ENDCHAR

STARTCHAR Racute
ENCODING 192
SWIDTH 600 0
DWIDTH 7 0
BBX 7 11 0 0
BITMAP
08
10
00
FC
66
66
66
7C
6C
6C
E6
ENDCHAR

STARTCHAR Aacute
ENCODING 193
SWIDTH 600 0
DWIDTH 7 0
BBX 7 11 0 0
BITMAP
08
10
00
70
38
38
6C
6C
7C
C6
C6
ENDCHAR

STARTCHAR Acircumflex
ENCODING 194
SWIDTH 600 0
DWIDTH 7 0
BBX 7 11 0 0
BITMAP
30
48
00
70
38
38
6C
6C
7C
C6
C6
ENDCHAR

STARTCHAR Abreve
ENCODING 195
SWIDTH 600 0
DWIDTH 7 0
BBX 7 11 0 0
BITMAP
44
38
00
70
38
38
6C
6C
7C
C6
C6
ENDCHAR

STARTCHAR Adieresis
ENCODING 196
SWIDTH 600 0
DWIDTH 7 0
BBX 7 10 0 0
BITMAP
48
00
70
38
38
6C
6C
7C
C6
C6
ENDCHAR

STARTCHAR Lacute
ENCODING 197
SWIDTH 600 0
DWIDTH 7 0
BBX 6 11 1 0
BITMAP
10
20
00
F0
60
60
60
60
64
64
FC
ENDCHAR

STARTCHAR Cacute
ENCODING 198
SWIDTH 600 0
DWIDTH 7 0
BBX 6 11 1 0
BITMAP
10
20
00
74
CC
C4
C0
C0
C0
CC
78
ENDCHAR

STARTCHAR Ccedilla
ENCODING 199
SWIDTH 600 0
DWIDTH 7 0
BBX 6 11 1 -3
BITMAP
74
CC
C4
C0
C0
C0
CC
78
20
10
60
ENDCHAR

STARTCHAR Ccaron
ENCODING 200
SWIDTH 600 0
DWIDTH 7 0
BBX 6 11 1 0
BITMAP
48
30
00
74
CC
C4
C0
C0
C0
CC
78
ENDCHAR

STARTCHAR Eacute
ENCODING 201
SWIDTH 600 0
DWIDTH 7 0
BBX 6 11 1 0
BITMAP
08
10
00
FC
64
68
78
68
60
64
FC
ENDCHAR

STARTCHAR Eogonek
ENCODING 202
SWIDTH 600 0
DWIDTH 7 0
BBX 6 10 1 -2
BITMAP
FC
64
68
78
68
60
64
FC
08
0C
ENDCHAR

STARTCHAR Edieresis
ENCODING 203
SWIDTH 600 0
DWIDTH 7 0
BBX 6 10 1 0
BITMAP
48
00
FC
64
68
78
68
60
64
FC
ENDCHAR

STARTCHAR Ecaron
ENCODING 204
SWIDTH 600 0
DWIDTH 7 0
BBX 6 11 1 0
BITMAP
48
30
00
FC
64
68
78
68
60
64
FC
ENDCHAR

STARTCHAR Iacute
ENCODING 205
SWIDTH 600 0
DWIDTH 7 0
BBX 6 11 1 0
BITMAP
08
10
00
FC
30
30
30
30
30
30
FC
ENDCHAR

STARTCHAR Icircumflex
ENCODING 206
SWIDTH 600 0
DWIDTH 7 0
BBX 6 11 1 0
BITMAP
30
48
00
FC
30
30
30
30
30
30
FC
ENDCHAR

STARTCHAR Dcaron
ENCODING 207
SWIDTH 600 0
DWIDTH 7 0
BBX 7 11 0 0
BITMAP
24
18
00
FC
66
66
66
66
66
66
FC
ENDCHAR

STARTCHAR Dcroat
ENCODING 208
SWIDTH 600 0
DWIDTH 7 0
BBX 7 8 0 0
BITMAP
FC
66
66
F6
66
66
66
FC
ENDCHAR

STARTCHAR Nacute
ENCODING 209
SWIDTH 600 0
DWIDTH 7 0
BBX 7 11 0 0
BITMAP
08
10
00
E6
74
74
7C
5C
5C
4C
CC
ENDCHAR

STARTCHAR Ncaron
ENCODING 210
SWIDTH 600 0
DWIDTH 7 0
BBX 7 11 0 0
BITMAP
24
18
00
E6
74
74
7C
5C
5C
4C
CC
ENDCHAR

STARTCHAR Oacute
ENCODING 211
SWIDTH 600 0
DWIDTH 7 0
BBX 6 11 1 0
BITMAP
08
10
00
78
CC
CC
CC
CC
CC
CC
78
ENDCHAR

STARTCHAR Ocircumflex
ENCODING 212
SWIDTH 600 0
DWIDTH 7 0
BBX 6 11 1 0
BITMAP
30
48
00
78
CC
CC
CC
CC
CC
CC
78
ENDCHAR

STARTCHAR Ohungarumlaut
ENCODING 213
SWIDTH 600 0
DWIDTH 7 0
BBX 6 11 1 0
BITMAP
24
48
00
78
CC
CC
CC
CC
CC
CC
78
ENDCHAR

STARTCHAR Odieresis
ENCODING 214
SWIDTH 600 0
DWIDTH 7 0
BBX 6 10 1 0
BITMAP
48
00
78
CC
CC
CC
CC
CC
CC
78
ENDCHAR

STARTCHAR multiply
ENCODING 215
SWIDTH 600 0
DWIDTH 7 0
BBX 4 4 2 2
BITMAP
90
60
60
90
ENDCHAR

STARTCHAR Rcaron
ENCODING 216
SWIDTH 600 0
DWIDTH 7 0
BBX 7 11 0 0
BITMAP
24
18
00
FC
66
66
66
7C
6C
6C
E6
ENDCHAR

STARTCHAR Uring
ENCODING 217
SWIDTH 600 0
DWIDTH 7 0
BBX 8 12 0 0
BITMAP
08
14
08
00
E7
66
66
66
66
66
66
3C
ENDCHAR

STARTCHAR Uacute
ENCODING 218
SWIDTH 600 0
DWIDTH 7 0
BBX 8 11 0 0
BITMAP
04
08
00
E7
66
66
66
66
66
66
3C
ENDCHAR

STARTCHAR Uhungarumlaut
ENCODING 219
SWIDTH 600 0
DWIDTH 7 0
BBX 8 11 0 0
BITMAP
12
24
00
E7
66
66
66
66
66
66
3C
ENDCHAR

STARTCHAR Udieresis
ENCODING 220
SWIDTH 600 0
DWIDTH 7 0
BBX 8 10 0 0
BITMAP
24
00
E7
66
66
66
66
66
66
3C
ENDCHAR

STARTCHAR Yacute
ENCODING 221
SWIDTH 600 0
DWIDTH 7 0
BBX 7 11 0 0
BITMAP
08
10
00
E6
66
24
3C
18
18
18
7E
ENDCHAR

STARTCHAR Tcommaaccent
ENCODING 222
SWIDTH 600 0
DWIDTH 7 0
BBX 6 11 1 -3
BITMAP
FC
B4
B4
30
30
30
30
78
00
20
40
ENDCHAR

STARTCHAR germandbls
ENCODING 223
SWIDTH 600 0
DWIDTH 7 0
BBX 7 9 0 0
BITMAP
38
6C
6C
6C
66
66
66
76
EC
ENDCHAR

STARTCHAR racute
ENCODING 224
SWIDTH 600 0
DWIDTH 7 0
BBX 6 9 1 0
BITMAP
08
10
00
EC
70
60
60
60
F8
ENDCHAR

STARTCHAR aacute
ENCODING 225
SWIDTH 600 0
DWIDTH 7 0
BBX 7 9 1 0
BITMAP
08
10
00
78
0C
7C
CC
CC
7E
ENDCHAR

STARTCHAR acircumflex
ENCODING 226
SWIDTH 600 0
DWIDTH 7 0
BBX 7 9 1 0
BITMAP
30
48
00
78
0C
7C
CC
CC
7E
ENDCHAR

STARTCHAR abreve
ENCODING 227
SWIDTH 600 0
DWIDTH 7 0
BBX 7 9 1 0
BITMAP
44
38
00
78
0C
7C
CC
CC
7E
ENDCHAR

STARTCHAR adieresis
ENCODING 228
SWIDTH 600 0
DWIDTH 7 0
BBX 7 8 1 0
BITMAP
48
00
78
0C
7C
CC
CC
7E
ENDCHAR

STARTCHAR lacute
ENCODING 229
SWIDTH 600 0
DWIDTH 7 0
BBX 6 12 1 0
BITMAP
10
20
00
F0
30
30
30
30
30
30
30
FC
ENDCHAR

STARTCHAR cacute
ENCODING 230
SWIDTH 600 0
DWIDTH 7 0
BBX 6 9 1 0
BITMAP
08
10
00
78
CC
C0
C0
CC
78
ENDCHAR

STARTCHAR ccedilla
ENCODING 231
SWIDTH 600 0
DWIDTH 7 0
BBX 6 9 1 -3
BITMAP
78
CC
C0
C0
CC
78
20
10
60
ENDCHAR

STARTCHAR ccaron
ENCODING 232
SWIDTH 600 0
DWIDTH 7 0
BBX 6 9 1 0
BITMAP
48
30
00
78
CC
C0
C0
CC
78
ENDCHAR

STARTCHAR eacute
ENCODING 233
SWIDTH 600 0
DWIDTH 7 0
BBX 6 9 1 0
BITMAP
08
10
00
78
CC
FC
C0
CC
78
ENDCHAR

STARTCHAR eogonek
ENCODING 234
SWIDTH 600 0
DWIDTH 7 0
BBX 6 8 1 -2
BITMAP
78
CC
FC
C0
CC
78
20
30
ENDCHAR

STARTCHAR edieresis
ENCODING 235
SWIDTH 600 0
DWIDTH 7 0
BBX 6 8 1 0
BITMAP
48
00
78
CC
FC
C0
CC
78
ENDCHAR

STARTCHAR ecaron
ENCODING 236
SWIDTH 600 0
DWIDTH 7 0
BBX 6 9 1 0
BITMAP
48
30
00
78
CC
FC
C0
CC
78
ENDCHAR

STARTCHAR iacute
ENCODING 237
SWIDTH 600 0
DWIDTH 7 0
BBX 6 9 1 0
BITMAP
10
20
00
F0
30
30
30
30
FC
ENDCHAR

STARTCHAR icircumflex
ENCODING 238
SWIDTH 600 0
DWIDTH 7 0
BBX 6 9 1 0
BITMAP
30
48
00
F0
30
30
30
30
FC
ENDCHAR

STARTCHAR dcaron
ENCODING 239
SWIDTH 600 0
DWIDTH 7 0
BBX 8 9 1 0
BITMAP
1D
0D
0E
6C
DC
CC
CC
DC
6C
ENDCHAR

STARTCHAR dcroat
ENCODING 240
SWIDTH 600 0
DWIDTH 7 0
BBX 7 9 1 0
BITMAP
1C
0C
1E
6C
DC
CC
CC
DC
6C
ENDCHAR

STARTCHAR nacute
ENCODING 241
SWIDTH 600 0
DWIDTH 7 0
BBX 7 9 0 0
BITMAP
08
10
00
DC
66
66
66
66
E6
ENDCHAR

STARTCHAR ncaron
ENCODING 242
SWIDTH 600 0
DWIDTH 7 0
BBX 7 9 0 0
BITMAP
24
18
00
DC
66
66
66
66
E6
ENDCHAR

STARTCHAR oacute
ENCODING 243
SWIDTH 600 0
DWIDTH 7 0
BBX 6 9 1 0
BITMAP
08
10
00
78
CC
CC
CC
CC
78
ENDCHAR

STARTCHAR ocircumflex
ENCODING 244
SWIDTH 600 0
DWIDTH 7 0
BBX 6 9 1 0
BITMAP
30
48
00
78
CC
CC
CC
CC
78
ENDCHAR

STARTCHAR ohungarumlaut
ENCODING 245
SWIDTH 600 0
DWIDTH 7 0
BBX 6 9 1 0
BITMAP
24
48
00
78
CC
CC
CC
CC
78
ENDCHAR

STARTCHAR odieresis
ENCODING 246
SWIDTH 600 0
DWIDTH 7 0
BBX 6 8 1 0
BITMAP
48
00
78
CC
CC
CC
CC
78
ENDCHAR

STARTCHAR divide
ENCODING 247
SWIDTH 600 0
DWIDTH 7 0
BBX 7 7 0 0
BITMAP
10
00
00
FE
00
00
10
ENDCHAR

STARTCHAR rcaron
ENCODING 248
SWIDTH 600 0
DWIDTH 7 0
BBX 6 9 1 0
BITMAP
48
30
00
EC
70
60
60
60
F8
ENDCHAR

STARTCHAR uring
ENCODING 249
SWIDTH 600 0
DWIDTH 7 0
BBX 7 10 0 0
BITMAP
10
28
10
00
EE
66
66
66
66
3A
ENDCHAR

STARTCHAR uacute
ENCODING 250
SWIDTH 600 0
DWIDTH 7 0
BBX 7 9 0 0
BITMAP
08
10
00
EE
66
66
66
66
3A
ENDCHAR

STARTCHAR uhungarumlaut
ENCODING 251
SWIDTH 600 0
DWIDTH 7 0
BBX 7 9 0 0
BITMAP
24
48
00
EE
66
66
66
66
3A
ENDCHAR

STARTCHAR udieresis
ENCODING 252
SWIDTH 600 0
DWIDTH 7 0
BBX 7 8 0 0
BITMAP
24
00
EE
66
66
66
66
3A
ENDCHAR

STARTCHAR yacute
ENCODING 253
SWIDTH 600 0
DWIDTH 7 0
BBX 7 11 0 -2
BITMAP
08
10
00
EE
66
6C
38
18
30
30
78
ENDCHAR

STARTCHAR tcommaaccent
ENCODING 254
SWIDTH 600 0
DWIDTH 7 0
BBX 6 11 1 -3
BITMAP
60
60
F8
60
60
60
64
38
00
20
40
ENDCHAR

STARTCHAR dotaccent
ENCODING 255
SWIDTH 600 0
DWIDTH 7 0
BBX 1 1 3 7
BITMAP
80
ENDCHAR
ENDFONT
